<svg version="1.1" xmlns="http://www.w3.org/2000/svg" xmlns:xlink="http://www.w3.org/1999/xlink" width="42.2px" height="48px" viewBox="0,0,225.0625,256"><g fill="none" fill-rule="nonzero" stroke="none" stroke-width="1" stroke-linecap="butt" stroke-linejoin="miter" stroke-miterlimit="10" stroke-dasharray="" stroke-dashoffset="0" font-family="none" font-weight="none" font-size="none" text-anchor="none" style="mix-blend-mode: normal"><g transform="translate(-0.00208,0) scale(5.33333,5.33333)"><g><circle cx="15.9" cy="26.2" r="15.9" fill="#38d39f"></circle><g fill="#4b4b4b"><path d="M11.8,13.3h6.1c0.5,0 1,-0.4 1,-1c0,-0.5 -0.4,-1 -1,-1h-6.1c-0.5,0 -1,0.4 -1,1c0,0.5 0.4,1 1,1z"></path><path d="M11.8,17.6h21.7c0.5,0 1,-0.4 1,-1c0,-0.5 -0.4,-1 -1,-1h-21.7c-0.5,0 -1,0.4 -1,1c0,0.6 0.4,1 1,1z"></path><path d="M11.8,21.9h21.7c0.5,0 1,-0.4 1,-1c0,-0.5 -0.4,-1 -1,-1h-21.7c-0.5,0 -1,0.4 -1,1c0,0.6 0.4,1 1,1z"></path><path d="M34.5,25.3c0,-0.5 -0.4,-1 -1,-1h-21.7c-0.5,0 -1,0.4 -1,1c0,0.5 0.4,1 1,1h21.7c0.5,0 1,-0.5 1,-1z"></path><path d="M15.3,37.3h-3.5c-0.5,0 -1,0.4 -1,1c0,0.5 0.4,1 1,1h3.5c0.5,0 1,-0.4 1,-1c0,-0.5 -0.5,-1 -1,-1z"></path><path d="M42.2,14.3v-9v-1.8h-1.8h-7.4v0h-4.7c-0.5,-2.1 -2.3,-3.5 -4.4,-3.5c-2.1,0 -3.9,1.4 -4.3,3.5h-10.4c-2,0 -3.6,1.6 -3.6,3.6v37.3c0,2 1.6,3.6 3.6,3.6h19.1c0.1,0 0.3,0 0.4,-0.1c0.1,0 0.2,-0.1 0.3,-0.2l13,-13c0.1,-0.1 0.2,-0.2 0.2,-0.3v0v-0.1v0v-20zM27.3,36.6v9.4h-18.1c-0.9,0 -1.6,-0.7 -1.6,-1.6v-37.3c0,-0.9 0.7,-1.6 1.6,-1.6h10.4c0.5,2 2.3,3.5 4.3,3.5c2.1,0 3.9,-1.4 4.3,-3.5h4.8v0h7.3v10.9v0v16.6h-9.4c-2,0 -3.6,1.6 -3.6,3.6zM23.9,2c1.4,0 2.5,1.1 2.5,2.5c0,1.4 -1.1,2.5 -2.5,2.5c-1.4,0 -2.5,-1.1 -2.5,-2.5c0.1,-1.4 1.2,-2.5 2.5,-2.5zM29.3,36.6c0,-0.9 0.7,-1.6 1.6,-1.6h8l-9.6,9.6z"></path></g></g></g></g></svg>