<svg version="1.1" xmlns="http://www.w3.org/2000/svg" xmlns:xlink="http://www.w3.org/1999/xlink" width="55.1px" height="78.1px" viewBox="0,0,180.60938,256"><g fill="#38d39f" fill-rule="nonzero" stroke="none" stroke-width="1" stroke-linecap="butt" stroke-linejoin="miter" stroke-miterlimit="10" stroke-dasharray="" stroke-dashoffset="0" font-family="none" font-weight="none" font-size="none" text-anchor="none" style="mix-blend-mode: normal"><g transform="translate(-0.02022,0.07628) scale(3.27785,3.27785)"><path d="M48.9,10c-0.9,-1 -1.9,-2 -2.9,-3c-5.9,-5.2 -13.7,-7.7 -21.6,-6.9c-15,1.7 -25.9,15.2 -24.2,30.2c0.8,7.2 4.3,13.7 9.9,18.3c1.7,1.4 2.6,3.5 2.6,5.7v11c0,7.1 5.8,12.8 12.9,12.8h4c7.1,0 12.9,-5.7 12.9,-12.8v-11c0,-2.3 1,-4.4 2.7,-5.9c11.6,-9.6 13.2,-26.8 3.7,-38.4zM29.5,73.5h-4c-2.1,0 -4.2,-0.8 -5.8,-2.3h15.5c-1.5,1.4 -3.5,2.3 -5.7,2.3zM37.9,65.3c0,0.4 -0.1,0.9 -0.1,1.3h-20.4c-0.1,-0.4 -0.1,-0.9 -0.1,-1.3v-1h20.7v1zM42.3,44.9c-2.8,2.3 -4.4,5.8 -4.4,9.4v5.4h-8v-13.8c0,-0.7 -0.3,-1.4 -0.9,-1.8l-10,-7.7c-0.4,-0.4 -0.6,-1 -0.6,-1.6v-0.3c0,-1.3 1.1,-2.4 2.5,-2.4c0.6,0 1.1,0.4 1.5,0.8c1.9,2.9 5.9,3.7 8.8,1.7c0.7,-0.5 1.3,-1 1.7,-1.7c0.4,-0.5 0.9,-0.8 1.6,-0.8h0.5c0.5,0 0.9,0.2 1.2,0.5c1.7,2 -1.4,5.1 -1.4,5.1v0l-4.3,4.3l3.2,3.3l5.7,-5.6c0,0 0.1,-0.1 0.2,-0.3l0.1,-0.1c0.6,-0.8 1.9,-2.9 1.6,-5.4c0,-3.5 -2.8,-6.3 -6.3,-6.3h-1c-2.1,0 -3.8,1.2 -5,2.9c-0.5,0.8 -1.6,1 -2.4,0.5c-0.2,-0.1 -0.4,-0.3 -0.5,-0.5c-0.8,-1.2 -2,-2.2 -3.4,-2.6c-4.7,-1.3 -9,2.2 -9,6.7v0.3c0,1.9 0.7,3.6 2.1,4.9c0.1,0.1 0.1,0.1 0.2,0.2l9.2,7.1v12.6h-8v-5.4c0.1,-3.6 -1.5,-7 -4.3,-9.3c-5.9,-4.8 -9,-12.3 -8.3,-19.9c1.2,-10.7 9.6,-19.2 20.3,-20.4c0.9,-0.1 1.8,-0.1 2.7,-0.1c12.6,-0.1 22.8,10 22.9,22.6c0.1,6.8 -3,13.3 -8.2,17.7z"></path></g></g></svg>