<svg version="1.1" xmlns="http://www.w3.org/2000/svg" xmlns:xlink="http://www.w3.org/1999/xlink" width="41.9px" height="44.7px" viewBox="0,0,239.95313,256"><g fill="none" fill-rule="nonzero" stroke="none" stroke-width="1" stroke-linecap="butt" stroke-linejoin="miter" stroke-miterlimit="10" stroke-dasharray="" stroke-dashoffset="0" font-family="none" font-weight="none" font-size="none" text-anchor="none" style="mix-blend-mode: normal"><g transform="translate(-0.29189,0.28635) scale(5.72707,5.72707)"><g><circle cx="15.9" cy="23.6" r="15.9" fill="#38d39f"></circle><g fill="#4b4b4b"><path d="M32.2,3.1c-1.9,-1.9 -4.6,-3.1 -7.5,-3.1c-2.9,0 -5.6,1.2 -7.5,3.1c-2,2 -3.2,4.6 -3.2,7.6c0,2.8 1.1,6 3,8.4v0c2.1,2.7 4.8,4.2 7.6,4.2c2.8,0 5.5,-1.5 7.6,-4.2v0c1.9,-2.4 3,-5.6 3,-8.4c0.1,-3 -1.1,-5.6 -3,-7.6zM16.1,9.5c0.6,-4.2 4.2,-7.4 8.5,-7.4c4.1,0 7.6,2.9 8.4,6.8l0.1,0.4l-0.4,-0.2c-3,-1.1 -4.6,-3.2 -4.7,-3.3v0v0l-0.8,-1l-0.8,1c-3,3.5 -7.5,4 -9.8,4h-0.2h-0.3zM30.7,17.9v0v0v0c-1.7,2.2 -3.8,3.4 -6,3.4c-2.2,0 -4.3,-1.2 -6,-3.4v0v0v0c-1.3,-1.7 -2.2,-3.8 -2.5,-5.8v-0.3h0.3c0.1,0 0.2,0 0.3,0c2.5,0 6.9,-0.5 10.3,-3.7l0.1,-0.1l0.2,0.2c1.1,1 3,2.5 5.7,3.3l0.2,0.1v0.2c-0.3,2 -1.2,4.2 -2.6,6.1z"></path><path d="M40.3,32.6c-0.5,-2.7 -2.5,-4.9 -5.2,-5.6l-6.5,-1.9h-7.8l-6.6,1.9c-2.7,0.8 -4.7,2.9 -5.2,5.6l-1.6,8c0,0.2 -0.1,0.4 -0.1,0.7c0,0.8 0.3,1.5 0.8,2.1c0.7,0.8 1.6,1.2 2.6,1.2h7.6h12.7h7.6c1,0 2,-0.5 2.6,-1.2c0.5,-0.6 0.8,-1.4 0.8,-2.1c0,-0.2 0,-0.4 -0.1,-0.7v0zM26.8,27.2l-1,2.4l-0.1,0.2h-2.3l-1.1,-2.6zM10.8,42.7c-0.5,0 -0.9,-0.3 -1,-0.5c-0.1,-0.1 -0.3,-0.4 -0.3,-0.8c0,-0.1 0,-0.2 0,-0.3v0l1.6,-8c0.4,-2 1.8,-3.5 3.7,-4.1v0v0v0l5.5,-1.6l1.4,3.5l-2.6,11.8zM21.5,42.7h-0.3l2.4,-10.8h2l2.4,10.8zM39.6,42.2v0c-0.1,0.2 -0.5,0.5 -1,0.5h-8.3l-2.6,-11.8l1.4,-3.5l5.5,1.6v0v0v0c1.9,0.5 3.4,2.1 3.7,4.1v0l1.6,8v0c0,0.1 0,0.2 0,0.3c0,0.4 -0.2,0.6 -0.3,0.8z"></path></g></g></g></g></svg>