<svg version="1.1" xmlns="http://www.w3.org/2000/svg" xmlns:xlink="http://www.w3.org/1999/xlink" width="50px" height="43.6px" viewBox="0,0,256,223.21875"><g fill="none" fill-rule="nonzero" stroke="none" stroke-width="1" stroke-linecap="butt" stroke-linejoin="miter" stroke-miterlimit="10" stroke-dasharray="" stroke-dashoffset="0" font-family="none" font-weight="none" font-size="none" text-anchor="none" style="mix-blend-mode: normal"><g transform="translate(0.256,0.24938) scale(5.12,5.12)"><g><circle cx="15.9" cy="22.1" r="15.9" fill="#38d39f"></circle><g fill="#4b4b4b"><path d="M6.4,38.7c0,1.3 0.5,2.6 1.4,3.4c0.9,0.9 2.1,1.4 3.4,1.4h33.9c1.3,0 2.6,-0.5 3.4,-1.4c0.9,-0.9 1.4,-2.1 1.4,-3.4v-33.8c0,-1.3 -0.5,-2.6 -1.4,-3.4c-0.8,-1 -2.1,-1.5 -3.4,-1.5h-33.9c-1.3,0 -2.5,0.5 -3.4,1.4c-0.9,0.9 -1.4,2.1 -1.4,3.5zM8.6,4.9c0,-1.5 1.2,-2.7 2.7,-2.7h33.9c1.5,0 2.7,1.2 2.7,2.7v10.1v0.1h-39.3zM8.6,17.3h39.2v21.5h-0.1h0.1c0,1.5 -1.2,2.7 -2.7,2.7h-33.9c-1.5,0 -2.7,-1.2 -2.7,-2.7v-21.5z"></path><path d="M14.1,8.7c0,0.7 0.6,1.3 1.3,1.3c0.7,0 1.3,-0.6 1.3,-1.3c0,-0.7 -0.6,-1.3 -1.3,-1.3c-0.7,0 -1.3,0.6 -1.3,1.3z"></path><path d="M19,8.7c0,0.7 0.6,1.3 1.3,1.3c0.7,0 1.3,-0.6 1.3,-1.3c0,-0.7 -0.6,-1.3 -1.3,-1.3c-0.7,0 -1.3,0.6 -1.3,1.3z"></path><path d="M23.9,8.7c0,0.7 0.6,1.3 1.3,1.3c0.7,0 1.3,-0.6 1.3,-1.3c0,-0.7 -0.6,-1.3 -1.3,-1.3c-0.7,0 -1.3,0.6 -1.3,1.3z"></path><path d="M27.2,31.4l-0.7,-0.7l-0.1,-0.1h-0.1h-0.1l-0.2,0.1v0c-0.1,0.1 -0.2,0.2 -0.4,0.3c-0.1,0.1 -0.3,0.1 -0.4,0.2c-0.1,0 -0.3,0.1 -0.4,0.1c-0.2,0 -0.3,0 -0.5,0c-0.3,0 -0.6,-0.1 -0.9,-0.2c-0.3,-0.1 -0.6,-0.3 -0.8,-0.6c-0.2,-0.2 -0.4,-0.6 -0.5,-0.9c-0.1,-0.4 -0.2,-0.8 -0.2,-1.2c0,-0.4 0.1,-0.8 0.2,-1.2c0.1,-0.4 0.3,-0.7 0.5,-0.9c0.2,-0.3 0.5,-0.4 0.8,-0.6c0.3,-0.1 0.7,-0.2 1,-0.2c0.2,0 0.4,0 0.6,0.1c0.2,0 0.3,0.1 0.4,0.1c0.1,0 0.2,0.1 0.3,0.2v0v0l0.2,0.1l0.2,0.1h0.2c0.1,0 0.1,0 0.2,0l0.1,-0.1l0.6,-0.8c-0.1,-0.1 -0.3,-0.3 -0.5,-0.4c-0.2,-0.1 -0.4,-0.3 -0.7,-0.4c-0.2,-0.1 -0.5,-0.2 -0.8,-0.2c-0.3,-0.1 -0.6,-0.1 -0.9,-0.1c-0.7,0 -1.3,0.1 -1.8,0.3c-0.5,0.2 -1,0.5 -1.4,0.9c-0.4,0.4 -0.7,0.8 -0.9,1.4c-0.2,0.5 -0.3,1.1 -0.3,1.7c0,0.6 0.1,1.2 0.3,1.7c0.2,0.5 0.5,1 0.8,1.4c0.4,0.4 0.8,0.7 1.3,0.9c0.5,0.2 1.1,0.3 1.7,0.3c0.7,0 1.3,-0.1 1.8,-0.3c0.7,-0.3 1.1,-0.6 1.4,-1z"></path><path d="M34.7,24.1c-0.1,0 -0.3,0 -0.3,0.1c-0.1,0.1 -0.2,0.2 -0.2,0.2v0l-1.7,4.6v0c-0.1,0.2 -0.1,0.4 -0.2,0.7c-0.1,0.2 -0.1,0.5 -0.2,0.7l-0.1,0.6l-0.1,-0.5c-0.1,-0.3 -0.1,-0.5 -0.2,-0.7c-0.1,-0.2 -0.2,-0.5 -0.2,-0.7v0l-1.7,-4.6c0,-0.1 -0.1,-0.2 -0.2,-0.3c-0.1,-0.1 -0.2,-0.1 -0.4,-0.1h-1.4l3.4,8.4h1.7l3.4,-8.4z"></path></g></g></g></g></svg>