<svg version="1.1" xmlns="http://www.w3.org/2000/svg" xmlns:xlink="http://www.w3.org/1999/xlink" width="41.3px" height="41.3px" viewBox="0,0,256,256"><g fill="#38d39f" fill-rule="nonzero" stroke="none" stroke-width="1" stroke-linecap="butt" stroke-linejoin="miter" stroke-miterlimit="10" stroke-dasharray="" stroke-dashoffset="0" font-family="none" font-weight="none" font-size="none" text-anchor="none" style="mix-blend-mode: normal"><g transform="scale(6.19855,6.19855)"><g><g><path d="M29.9,10.2h-18.5c-0.6,0 -1.1,0.5 -1.1,1.1v0v18.5c0,0.6 0.5,1.1 1.1,1.1v0h9.9v-8h-2.7v-3.1h2.7v-2.3c0,-2.7 1.6,-4.1 4,-4.1c0.8,0 1.6,0 2.4,0.1v2.8h-1.7c-1.3,0 -1.6,0.6 -1.6,1.5v2h3.1l-0.2,3.2h-2.7v8h5.3c0.6,0 1.1,-0.5 1.1,-1.1v0v-18.5c0,-0.6 -0.5,-1.2 -1.1,-1.2z" id="Facebook-2"></path></g><g><path d="M33.3,40.3v-1h-25.3c-1.7,0 -3.1,-0.7 -4.2,-1.8c-1.1,-1.1 -1.8,-2.6 -1.8,-4.2v-25.3c0,-1.7 0.7,-3.1 1.8,-4.2c1,-1.1 2.5,-1.8 4.2,-1.8h25.3c1.7,0 3.1,0.7 4.2,1.8c1.1,1.1 1.8,2.6 1.8,4.2v25.3c0,1.7 -0.7,3.1 -1.8,4.2c-1.1,1.1 -2.6,1.8 -4.2,1.8v1v1c4.4,0 8,-3.6 8,-8v-25.3c0,-4.4 -3.6,-8 -8,-8h-25.3c-4.4,0 -8,3.6 -8,8v25.3c0,4.4 3.6,8 8,8h25.3z"></path></g></g></g></g></svg>