<svg version="1.1" xmlns="http://www.w3.org/2000/svg" xmlns:xlink="http://www.w3.org/1999/xlink" width="85.2px" height="85.2px" viewBox="0,0,256,256"><g fill="#38d39f" fill-rule="nonzero" stroke="none" stroke-width="1" stroke-linecap="butt" stroke-linejoin="miter" stroke-miterlimit="10" stroke-dasharray="" stroke-dashoffset="0" font-family="none" font-weight="none" font-size="none" text-anchor="none" style="mix-blend-mode: normal"><g transform="scale(3.00469,3.00469)"><g><path d="M24.7,70.8l46.1,-46.1l-10.3,-10.3l-46.1,46.1zM40.3,61.4l-14.1,14.1l-0.7,0.5l-22.4,9c-1.8,0.7 -3.6,-1.1 -2.9,-2.9l9,-22.4l0.5,-0.8l14.1,-14.1l-23.1,-23c-0.9,-0.9 -0.9,-2.3 0,-3.2l17.9,-17.9c0.9,-0.9 2.3,-0.9 3.2,0l23.1,23.1l21.7,-21.8c2.6,-2.6 6.9,-2.6 9.5,0l7.1,7.1c2.6,2.6 2.6,6.9 0,9.5l-21.8,21.7l23.1,23.1c0.9,0.9 0.9,2.3 0,3.2l-17.9,17.9c-0.9,0.9 -2.3,0.9 -3.2,0zM43.5,58.3l21.5,21.4l14.7,-14.7l-5.8,-5.8l-2.9,2.9c-2.1,2.1 -5.3,-1.1 -3.2,-3.2l2.9,-2.9l-5.7,-5.8l-7.4,7.4c-2.1,2.1 -5.3,-1.1 -3.2,-3.2l7.4,-7.4l-3.6,-3.6l-14.7,14.9zM26.9,41.6l14.8,-14.8l-3.6,-3.6l-2.9,2.9c-2.1,2.1 -5.3,-1.1 -3.2,-3.2l2.9,-2.9l-5.8,-5.8l-7.4,7.4c-2.1,2.1 -5.3,-1.1 -3.2,-3.2l7.4,-7.4l-5.8,-5.8l-14.7,15l21.5,21.4zM20.7,73.1l-8.7,-8.6l-5.7,14.4l14.4,-5.8zM63.7,11.2l10.3,10.3l6.1,-6.1c0.9,-0.9 0.9,-2.3 0,-3.2l-7.1,-7.1c-0.9,-0.9 -2.3,-0.9 -3.2,0l-6.1,6.1z"></path></g></g></g></svg>