<svg version="1.1" xmlns="http://www.w3.org/2000/svg" xmlns:xlink="http://www.w3.org/1999/xlink" width="41.3px" height="41.3px" viewBox="0,0,256,256"><g fill="#38d39f" fill-rule="nonzero" stroke="none" stroke-width="1" stroke-linecap="butt" stroke-linejoin="miter" stroke-miterlimit="10" stroke-dasharray="" stroke-dashoffset="0" font-family="none" font-weight="none" font-size="none" text-anchor="none" style="mix-blend-mode: normal"><g transform="scale(6.19855,6.19855)"><g><g><path d="M20.9,12.7c2.8,0 3.1,0 4.2,0.1c0.7,0 1.3,0.1 1.9,0.4c0.9,0.4 1.6,1.1 2,2c0.2,0.6 0.4,1.3 0.4,1.9c0.1,1.1 0.1,1.4 0.1,4.2c0,2.8 0,3.1 -0.1,4.2c0,0.7 -0.1,1.3 -0.4,1.9c-0.4,0.9 -1.1,1.6 -2,2c-0.6,0.2 -1.3,0.4 -1.9,0.4c-1.1,0.1 -1.4,0.1 -4.2,0.1c-2.8,0 -3.1,0 -4.2,-0.1c-0.7,0 -1.3,-0.1 -1.9,-0.4c-0.9,-0.4 -1.6,-1.1 -2,-2c-0.2,-0.6 -0.4,-1.3 -0.4,-1.9c-0.1,-1.1 -0.1,-1.4 -0.1,-4.2c0,-2.8 0,-3.1 0.1,-4.2c0,-0.7 0.1,-1.3 0.4,-1.9c0.4,-0.9 1.1,-1.6 2,-2c0.6,-0.2 1.3,-0.4 1.9,-0.4c1.1,-0.1 1.4,-0.1 4.2,-0.1M20.9,10.8c-2.8,0 -3.2,0 -4.3,0.1c-0.9,0 -1.7,0.2 -2.5,0.5c-1.4,0.5 -2.5,1.6 -3.1,3.1c-0.3,0.8 -0.5,1.7 -0.5,2.5c0,1.1 -0.1,1.5 -0.1,4.3c0,2.8 0,3.2 0.1,4.3c0,0.9 0.2,1.7 0.5,2.5c0.5,1.4 1.6,2.5 3.1,3.1c0.8,0.3 1.7,0.5 2.5,0.5c1.1,0 1.5,0.1 4.3,0.1c2.8,0 3.2,0 4.3,-0.1c0.9,0 1.7,-0.2 2.5,-0.5c1.4,-0.5 2.5,-1.6 3.1,-3.1c0.3,-0.8 0.5,-1.7 0.5,-2.5c0,-1.1 0.1,-1.5 0.1,-4.3c0,-2.8 0,-3.2 -0.1,-4.3c0,-0.9 -0.2,-1.7 -0.5,-2.5c-0.5,-1.4 -1.6,-2.5 -3.1,-3.1c-0.8,-0.3 -1.7,-0.5 -2.5,-0.5c-1.1,-0.1 -1.5,-0.1 -4.3,-0.1z"></path><path d="M20.9,15.9c-2.9,0 -5.3,2.4 -5.3,5.3c0,2.9 2.4,5.3 5.3,5.3c2.9,0 5.3,-2.4 5.3,-5.3v0c0,-2.9 -2.4,-5.3 -5.3,-5.3zM20.9,24.7c-1.9,0 -3.5,-1.5 -3.5,-3.5c0,-2 1.5,-3.5 3.5,-3.5c1.9,0 3.5,1.5 3.5,3.5v0c-0.1,1.9 -1.6,3.5 -3.5,3.5z"></path><circle cx="26.4" cy="15.7" r="1.2"></circle></g><g><path d="M33.3,40.3v-1h-25.3c-1.7,0 -3.1,-0.7 -4.2,-1.8c-1.1,-1.1 -1.8,-2.6 -1.8,-4.2v-25.3c0,-1.7 0.7,-3.1 1.8,-4.2c1,-1.1 2.5,-1.8 4.2,-1.8h25.3c1.7,0 3.1,0.7 4.2,1.8c1.1,1.1 1.8,2.6 1.8,4.2v25.3c0,1.7 -0.7,3.1 -1.8,4.2c-1.1,1.1 -2.6,1.8 -4.2,1.8v1v1c4.4,0 8,-3.6 8,-8v-25.3c0,-4.4 -3.6,-8 -8,-8h-25.3c-4.4,0 -8,3.6 -8,8v25.3c0,4.4 3.6,8 8,8h25.3z"></path></g></g></g></g></svg>