<svg version="1.1" xmlns="http://www.w3.org/2000/svg" xmlns:xlink="http://www.w3.org/1999/xlink" width="41.3px" height="41.3px" viewBox="0,0,256,256"><g fill="#38d39f" fill-rule="nonzero" stroke="none" stroke-width="1" stroke-linecap="butt" stroke-linejoin="miter" stroke-miterlimit="10" stroke-dasharray="" stroke-dashoffset="0" font-family="none" font-weight="none" font-size="none" text-anchor="none" style="mix-blend-mode: normal"><g transform="scale(6.19855,6.19855)"><g><g id="Linkedin-2"><path d="M10.9,15.4h4.3v13.9h-4.3zM13.1,8.5c1.4,0 2.5,1.1 2.5,2.5c0,1.4 -1.1,2.5 -2.5,2.5c-1.4,0 -2.5,-1.1 -2.5,-2.5v0c0,-1.4 1.1,-2.5 2.5,-2.5"></path><path d="M17.9,15.4h4.1v1.9h0.1c0.8,-1.4 2.4,-2.3 4.1,-2.2c4.4,0 5.2,2.9 5.2,6.6v7.6h-4.3v-6.7c0,-1.6 0,-3.7 -2.2,-3.7c-2.2,0 -2.6,1.7 -2.6,3.6v6.9h-4.3z"></path></g><g><path d="M33.3,40.3v-1h-25.3c-1.7,0 -3.1,-0.7 -4.2,-1.8c-1.1,-1.1 -1.8,-2.6 -1.8,-4.2v-25.3c0,-1.7 0.7,-3.1 1.8,-4.2c1,-1.1 2.5,-1.8 4.2,-1.8h25.3c1.7,0 3.1,0.7 4.2,1.8c1.1,1.1 1.8,2.6 1.8,4.2v25.3c0,1.7 -0.7,3.1 -1.8,4.2c-1.1,1.1 -2.6,1.8 -4.2,1.8v1v1c4.4,0 8,-3.6 8,-8v-25.3c0,-4.4 -3.6,-8 -8,-8h-25.3c-4.4,0 -8,3.6 -8,8v25.3c0,4.4 3.6,8 8,8h25.3z"></path></g></g></g></g></svg>