<svg version="1.1" xmlns="http://www.w3.org/2000/svg" xmlns:xlink="http://www.w3.org/1999/xlink" width="79.2px" height="80.9px" viewBox="0,0,250.60938,256"><g fill="#38d39f" fill-rule="nonzero" stroke="none" stroke-width="1" stroke-linecap="butt" stroke-linejoin="miter" stroke-miterlimit="10" stroke-dasharray="" stroke-dashoffset="0" font-family="none" font-weight="none" font-size="none" text-anchor="none" style="mix-blend-mode: normal"><g transform="translate(-0.00557,0.31644) scale(3.1644,3.1644)"><g><path d="M63.8,20.6h10.2c2.9,0 5.2,-2.3 5.2,-5.2v-10.2c0,-2.9 -2.3,-5.2 -5.2,-5.2h-10.2c-2.9,0 -5.2,2.3 -5.2,5.2v2.6h-3.4c-6,0 -10.7,4.9 -10.7,10.7v19.3h-9.3c-1.2,-8.6 -8.5,-15.3 -17.5,-15.3c-9.8,0.2 -17.7,8.2 -17.7,18c0,9.8 7.9,17.7 17.7,17.7c8.9,0 16.3,-6.6 17.5,-15.3h9.3v19.3c0,6 4.9,10.7 10.7,10.7h3.4v2.6c0,2.9 2.3,5.2 5.2,5.2h10.2c2.9,0 5.2,-2.3 5.2,-5.2v-10.1c0,-2.9 -2.3,-5.2 -5.2,-5.2h-10.2c-2.9,0 -5.2,2.3 -5.2,5.2v2.6h-3.4c-3.2,0 -5.9,-2.6 -5.9,-5.9v-19.2h9.3v2.6c0,2.9 2.3,5.2 5.2,5.2h10.2c2.9,0 5.2,-2.3 5.2,-5.2v-10.1c0,-2.9 -2.3,-5.2 -5.2,-5.2h-10.2c-2.9,0 -5.2,2.3 -5.2,5.2v2.6h-9.3v-19.3c0,-3.2 2.6,-5.9 5.9,-5.9h3.4v2.6c0,2.9 2.3,5.2 5.2,5.2zM17.7,53.3c-7.1,0 -12.9,-5.8 -12.9,-12.9c0,-7.1 5.8,-12.9 12.9,-12.9c7.1,0 12.9,5.8 12.9,12.9c0,7.1 -5.8,12.9 -12.9,12.9zM63.8,65.2h10.2c0.2,0 0.3,0.2 0.3,0.3l-0.3,10.6l-10.6,-0.3zM63.8,35h10.2c0.2,0 0.3,0.2 0.3,0.3l-0.3,10.6l-10.6,-0.3zM63.8,4.9h10.2c0.2,0 0.3,0.2 0.3,0.3l-0.3,10.6l-10.6,-0.3z"></path><path d="M21,36l-5,5.4l-1.8,-2c-0.9,-1 -2.5,-1 -3.4,-0.1c-1,0.9 -1,2.5 -0.1,3.4l3.6,3.8c0.4,0.5 1.1,0.8 1.8,0.8c0.7,0 1.3,-0.3 1.8,-0.8l6.8,-7.3c0.9,-1 0.9,-2.6 -0.1,-3.4c-1.2,-0.9 -2.7,-0.8 -3.6,0.2z"></path></g></g></g></svg>