<?xml version="1.0" encoding="UTF-8" standalone="no"?>
<svg
   xmlns:dc="http://purl.org/dc/elements/1.1/"
   xmlns:cc="http://creativecommons.org/ns#"
   xmlns:rdf="http://www.w3.org/1999/02/22-rdf-syntax-ns#"
   xmlns:svg="http://www.w3.org/2000/svg"
   xmlns="http://www.w3.org/2000/svg"
   id="svg2985"
   version="1.1"
   width="213.33333"
   height="213.33333"
   viewBox="0 0 200 200">
  <metadata
     id="metadata2991">
    <rdf:RDF>
      <cc:Work
         rdf:about="">
        <dc:title></dc:title>
      </cc:Work>
    </rdf:RDF>
  </metadata>
  <defs
     id="defs2989" />
  <g
     id="g108"
     transform="translate(-142.48812,-0.50797902)">
    <path
       style="fill:#000000;stroke:none;stroke-width:0.9375px;stroke-linecap:butt;stroke-linejoin:miter;stroke-opacity:1"
       d="m 284.01111,80.157811 c 0,0 -22.18851,-38.719759 -36.19158,-59.763351 -1.59276,-2.393563 -4.87644,-5.151893 -6.91187,-5.159469 -2.83841,-0.01056 -5.90004,2.906579 -7.54311,5.221098 -17.10198,24.090863 -35.34759,48.871751 -54.95689,77.034655 -1.51137,2.170621 -1.87863,5.525396 -0.71839,7.902296 1.67081,3.42289 4.98548,3.74074 11.29131,3.74074 h 114.06789 l -11.49426,-19.545339 -74.71264,0.359195 c 0,0 -1.86141,-0.120335 -2.36559,-0.780019 -0.56996,-0.745758 -0.68802,-2.043669 -0.14878,-2.811935 8.33992,-11.882044 22.98851,-35.20115 22.98851,-35.20115 0,0 1.67256,-2.01724 2.83372,-0.569608 4.36261,5.43895 20.15479,29.572887 20.15479,29.572887 z"
       id="path27" />
    <path
       id="path27-1"
       style="fill:none;stroke:#000000;stroke-width:1.875;stroke-linecap:butt;stroke-linejoin:miter;stroke-opacity:1"
       d="m 240.84643,13.40227 c -3.15973,0.09619 -5.78983,2.245366 -7.8125,4.492187 -1.91648,2.324081 -3.53529,4.877287 -5.32579,7.29803 -17.02851,23.852716 -34.33961,47.505916 -51.04862,71.583686 -2.15019,3.444187 -2.16054,8.411257 0.69629,11.471647 2.11083,2.26396 5.39442,2.62585 8.31875,2.7521 6.89846,0.11579 13.79939,0.0228 20.69882,0.0527 33.31524,0 66.63047,0 99.94571,0 -4.56476,-7.76893 -9.13411,-15.535157 -13.70118,-23.302737 -25.26737,0.11627 -50.53607,0.25751 -75.80262,0.35529 -0.42438,-0.0397 -1.1956,-0.0793 -0.92003,-0.68537 7.57921,-10.94584 14.72152,-22.1852 21.8619,-33.41964 0.41841,-0.59466 0.72358,-1.28387 1.21622,-1.81668 3.97644,5.28664 7.62829,10.86039 11.32227,16.3125 3.02302,4.52372 6.0131,9.03693 8.99023,13.58008 9.32227,-1e-5 18.64453,0 27.9668,0 -10.65463,-18.4643 -21.42899,-36.865259 -32.82422,-54.883285 -1.92846,-2.956077 -3.74701,-5.991755 -5.82812,-8.843283 -1.76186,-2.071002 -3.90308,-4.03959 -6.57418,-4.797083 -0.38567,-0.09939 -0.78108,-0.153872 -1.17973,-0.150182 z" />
  </g>
  <path
     id="path39"
     style="font-style:normal;font-variant:normal;font-weight:normal;font-stretch:normal;font-size:62.8084px;line-height:1.25;font-family:'Franklin Gothic Heavy';-inkscape-font-specification:'Franklin Gothic Heavy, ';letter-spacing:0px;word-spacing:0px;opacity:0.9;fill:#000000;fill-opacity:1;stroke-width:2.56102"
     d="m 3.738209,126.84185 v 58.06274 h 19.266359 v -13.3136 c 9.061104,0 15.539798,0.50209 22.911988,-6.11023 3.73079,-4.07282 5.595703,-9.41805 5.595703,-16.03638 0,-4.34431 -0.91961,-8.26501 -2.757568,-11.76086 -1.810534,-3.49582 -4.279342,-6.0923 -7.406617,-7.7893 -3.09985,-1.697 -7.639154,-3.05237 -13.619385,-3.05237 z m 51.807863,0 v 58.06274 h 48.982548 l 4.85596,-10.80505 h 22.67578 l 5.69824,10.80505 h 12.66724 5.11047 V 166.6032 l 9.63318,-7.36999 14.90296,25.67138 h 13.04626 l -20.3595,-36.62659 20.80811,-21.43615 h -12.71979 c 0,0 -8.98477,9.30023 -15.50349,16.17168 -7.69278,8.10904 -9.44614,10.37387 -9.55374,4.02706 -0.16588,-9.78445 -0.25399,-20.19874 -0.25399,-20.19874 h -11.22803 l -0.77738,31.5417 c 0,0 -0.88799,3.03981 -2.67592,-0.0516 L 128.22796,126.84188 H 112.4699 L 96.129563,173.91829 H 67.275809 V 161.39936 H 93.926813 V 151.39474 H 67.275809 v -13.10512 h 26.008304 v -11.44776 z m -25.574341,11.83594 c 6.733228,1.8e-4 12.191418,5.23128 12.191163,11.68397 2.55e-4,6.45267 -5.457935,11.68378 -12.191163,11.68396 -6.733942,7.7e-4 -12.193249,-5.23061 -12.192994,-11.68396 -2.55e-4,-6.45337 5.459052,-11.68476 12.192994,-11.68397 z m 90.032959,6.48377 8.13904,20.91797 h -17.0398 z" />
  <path
     id="path39-5"
     style="font-style:normal;font-variant:normal;font-weight:normal;font-stretch:normal;font-size:62.8084px;line-height:1.25;font-family:'Franklin Gothic Heavy';-inkscape-font-specification:'Franklin Gothic Heavy, ';letter-spacing:0px;word-spacing:0px;opacity:0.9;fill:none;fill-opacity:1;stroke:#000000;stroke-width:2;stroke-linejoin:round;stroke-opacity:1"
     d="M 27.554688 133.36719 C 25.488837 133.37109 23.422934 133.41638 21.359375 133.38086 L 1.875 133.38086 L 1.875 135.38086 L 1.875 199.31445 L 26.425781 199.31445 L 26.425781 185.11719 C 32.014532 185.14503 37.834624 185.16924 43.03125 182.82031 C 45.820408 181.56638 48.421189 179.82685 50.583984 177.66602 C 53.813195 174.10074 56.161828 169.70497 57.134766 165.05859 C 57.015651 175.95967 56.878611 186.53527 57.138672 199.31445 L 112.67969 199.31445 C 114.40697 195.4725 116.13287 191.6294 117.85938 187.78711 L 139.54688 187.78711 C 141.5726 191.62945 143.59709 195.47223 145.62305 199.31445 L 167.79492 199.31445 L 167.79492 178.7793 C 170.35674 176.81887 172.91867 174.85689 175.48047 172.89648 C 180.59135 181.70216 185.70284 190.50806 190.8125 199.31445 L 209.28125 199.31445 C 201.73139 185.7346 194.18551 172.15271 186.63672 158.57227 C 194.78737 150.17501 202.93759 141.77845 211.08789 133.38086 L 191.96094 133.38086 C 185.58454 139.75554 179.33409 146.25485 173.25586 152.91406 C 171.65854 154.53415 168.72337 158.05265 168.16992 157.37305 L 167.72656 133.38086 L 151.86328 133.38086 C 151.5375 145.22322 151.41198 156.43052 151.12109 166.70508 L 138.05273 133.38086 L 118.43359 133.38086 C 112.62281 150.11892 106.81244 166.85754 101.00195 183.5957 L 73.648438 183.5957 L 73.648438 174.24023 L 102.07812 174.24023 L 102.07812 159.57031 L 73.648438 159.57031 L 73.648438 149.5918 L 101.39062 149.5918 L 101.39062 133.38086 L 57.138672 133.38086 L 57.138672 135.38086 C 57.258707 142.66827 57.255812 149.09968 57.21875 155.27344 C 56.234891 149.90418 53.608868 144.65063 49.947266 140.7207 C 45.778588 136.26645 39.679264 134.21732 33.742188 133.60156 C 31.684807 133.40074 29.620538 133.36328 27.554688 133.36719 z M 31.626953 150 C 31.905463 149.99569 32.184119 150.00201 32.462891 150.01953 C 37.126982 150.18401 41.576953 153.58228 42.599609 158.19727 C 43.597131 162.20808 41.756663 166.63044 38.349609 168.91406 C 34.128428 171.93333 27.843384 171.51051 24.107422 167.89062 C 21.000028 165.07726 19.951127 160.26226 21.699219 156.4375 C 23.376535 152.55199 27.449299 150.06467 31.626953 150 z M 127.80859 160.22266 C 129.75582 165.22613 131.70317 170.22894 133.65039 175.23242 L 121.42188 175.23242 C 123.55104 170.22894 125.67942 165.22613 127.80859 160.22266 z "
     transform="scale(0.93750002)" />
</svg>
