<svg version="1.1" xmlns="http://www.w3.org/2000/svg" xmlns:xlink="http://www.w3.org/1999/xlink" width="44.8px" height="48px" viewBox="0,0,238.92188,256"><g fill="none" fill-rule="nonzero" stroke="none" stroke-width="1" stroke-linecap="butt" stroke-linejoin="miter" stroke-miterlimit="10" stroke-dasharray="" stroke-dashoffset="0" font-family="none" font-weight="none" font-size="none" text-anchor="none" style="mix-blend-mode: normal"><g transform="translate(-0.00573,0.0187) scale(5.33333,5.33333)"><g><circle cx="15.9" cy="26.7" r="15.9" fill="#38d39f"></circle><g fill="#4b4b4b"><path d="M43.8,5h-9v-1c0,-0.6 -0.4,-1 -1,-1h-3.1c-0.6,-2.1 -2.7,-3.4 -4.9,-2.9c-1.4,0.4 -2.5,1.5 -2.9,2.9h-3.1c-0.6,0 -1,0.4 -1,1v1h-9c-0.6,0 -1,0.4 -1,1v41c0,0.6 0.4,1 1,1h34c0.6,0 1,-0.4 1,-1v-41c0,-0.6 -0.5,-1 -1,-1zM20.8,5h3c0.6,0 1,-0.4 1,-1c0,-1.1 0.9,-2 2,-2c1.1,0 2,0.9 2,2c0,0.6 0.4,1 1,1h3v2h-12zM42.8,46h-32v-39h8v1c0,0.6 0.4,1 1,1h14c0.6,0 1,-0.4 1,-1v-1h8z"></path><path d="M20.8,35h-6c-0.6,0 -1,0.4 -1,1v6c0,0.6 0.4,1 1,1h6c0.6,0 1,-0.4 1,-1v-6c0,-0.6 -0.5,-1 -1,-1zM19.8,41h-4v-4h4z"></path><path d="M20.8,24h-6c-0.6,0 -1,0.4 -1,1v6c0,0.6 0.4,1 1,1h6c0.6,0 1,-0.4 1,-1v-6c0,-0.6 -0.5,-1 -1,-1zM19.8,30h-4v-4h4z"></path><path d="M38.8,18h-13c-0.6,0 -1,0.4 -1,1c0,0.6 0.4,1 1,1h13c0.6,0 1,-0.4 1,-1c0,-0.6 -0.5,-1 -1,-1z"></path><path d="M25.8,14c-0.6,0 -1,0.4 -1,1c0,0.6 0.4,1 1,1h13c0.6,0 1,-0.4 1,-1c0,-0.6 -0.4,-1 -1,-1z"></path><path d="M38.8,29h-13c-0.6,0 -1,0.4 -1,1c0,0.6 0.4,1 1,1h13c0.6,0 1,-0.4 1,-1c0,-0.6 -0.5,-1 -1,-1z"></path><path d="M38.8,25h-13c-0.6,0 -1,0.4 -1,1c0,0.6 0.4,1 1,1h13c0.6,0 1,-0.4 1,-1c0,-0.6 -0.5,-1 -1,-1z"></path><path d="M38.8,40h-13c-0.6,0 -1,0.4 -1,1c0,0.6 0.4,1 1,1h13c0.6,0 1,-0.4 1,-1c0,-0.6 -0.5,-1 -1,-1z"></path><path d="M38.8,36h-13c-0.6,0 -1,0.4 -1,1c0,0.6 0.4,1 1,1h13c0.6,0 1,-0.4 1,-1c0,-0.6 -0.5,-1 -1,-1z"></path><path d="M20.1,14.3l-3.3,3.3l-1.3,-1.3c-0.4,-0.4 -1,-0.4 -1.4,0c-0.4,0.4 -0.4,1 0,1.4c3.3,3.3 2,3.4 7.4,-2c0.4,-0.4 0.4,-1 0,-1.4c-0.4,-0.4 -1.1,-0.4 -1.4,0z"></path></g></g></g></g></svg>