<svg version="1.1" xmlns="http://www.w3.org/2000/svg" xmlns:xlink="http://www.w3.org/1999/xlink" width="38.2px" height="38.2px" viewBox="0,0,256,256"><g fill="#38d39f" fill-rule="nonzero" stroke="none" stroke-width="1" stroke-linecap="butt" stroke-linejoin="miter" stroke-miterlimit="10" stroke-dasharray="" stroke-dashoffset="0" font-family="none" font-weight="none" font-size="none" text-anchor="none" style="mix-blend-mode: normal"><g transform="translate(-0.04398,-0.33508) scale(6.70157,6.70157)"><path d="M36.9,34.1l-11.2,-11.2c1.7,-2.3 2.8,-5.2 2.8,-8.3c0,-7.7 -6.2,-13.9 -13.9,-13.9c-7.7,0 -13.9,6.2 -13.9,13.9c0,7.7 6.2,13.9 13.9,13.9c3.1,0 6,-1 8.3,-2.8l11.3,11.3c0.8,0.8 2,0.8 2.8,0c0.7,-0.8 0.7,-2.1 -0.1,-2.9zM4.6,14.6c0,-5.5 4.4,-9.9 9.9,-9.9c5.5,0 9.9,4.4 9.9,9.9c0,5.5 -4.4,9.9 -9.9,9.9c-5.5,0 -9.9,-4.4 -9.9,-9.9z"></path></g></g></svg>