<svg version="1.1" xmlns="http://www.w3.org/2000/svg" xmlns:xlink="http://www.w3.org/1999/xlink" width="41.3px" height="41.3px" viewBox="0,0,256,256"><g fill="#38d39f" fill-rule="nonzero" stroke="none" stroke-width="1" stroke-linecap="butt" stroke-linejoin="miter" stroke-miterlimit="10" stroke-dasharray="" stroke-dashoffset="0" font-family="none" font-weight="none" font-size="none" text-anchor="none" style="mix-blend-mode: normal"><g transform="scale(6.19855,6.19855)"><g><path d="M31.6,15c-0.8,0.3 -1.6,0.6 -2.4,0.7c0.9,-0.5 1.6,-1.4 1.9,-2.4c-0.8,0.5 -1.8,0.8 -2.7,1c-1.6,-1.7 -4.3,-1.8 -6,-0.2c-0.9,0.8 -1.3,1.9 -1.3,3.1c0,0.3 0,0.7 0.1,1c-3.4,-0.2 -6.6,-1.8 -8.8,-4.4c-1.1,1.9 -0.6,4.4 1.3,5.7c-0.7,0 -1.3,-0.2 -1.9,-0.5v0c0,2 1.4,3.8 3.4,4.2c-0.6,0.2 -1.3,0.2 -1.9,0.1c0.6,1.7 2.2,2.9 4,3c-1.5,1.2 -3.4,1.8 -5.3,1.8c-0.3,0 -0.7,0 -1,-0.1c2,1.3 4.2,1.9 6.5,1.9c7.9,0 12.1,-6.5 12.1,-12.1c0,-0.2 0,-0.4 0,-0.6c0.7,-0.6 1.4,-1.4 2,-2.2z" id="Twitter-2"></path><g><path d="M33.3,40.3v-1h-25.3c-1.7,0 -3.1,-0.7 -4.2,-1.8c-1.1,-1.1 -1.8,-2.6 -1.8,-4.2v-25.3c0,-1.7 0.7,-3.1 1.8,-4.2c1,-1.1 2.5,-1.8 4.2,-1.8h25.3c1.7,0 3.1,0.7 4.2,1.8c1.1,1.1 1.8,2.6 1.8,4.2v25.3c0,1.7 -0.7,3.1 -1.8,4.2c-1.1,1.1 -2.6,1.8 -4.2,1.8v1v1c4.4,0 8,-3.6 8,-8v-25.3c0,-4.4 -3.6,-8 -8,-8h-25.3c-4.4,0 -8,3.6 -8,8v25.3c0,4.4 3.6,8 8,8h25.3z"></path></g></g></g></g></svg>