<svg version="1.2" xmlns="http://www.w3.org/2000/svg" viewBox="0 0 150 150" width="150" height="150">
	<title>New Project</title>
	<style>
		.s0 { fill: #050505 } 
	</style>
	<path id="Layer" class="s0" d="m127.3 39c-29.5 20.8-51.4 48.9-74.2 76.3-9.4-9.3-27.8-49.8-31.6-68.8 9.9 6.2 20.4 12.6 30.5 19.4 1.9 1.2 2.5 4.2 3.3 6.9-8 8.2-9.9 19.2-3.3 26.5q2-13.2 4.1-26.4c3.2-7.1 9.8-10.1 16.2-13.4 15.9-8.4 32.3-15.4 49.8-19.8 1.4-0.4 2.9-0.5 4.7-0.7 0.4 0.1 0.5 0 0.5 0z"/>
	<path id="Layer" class="s0" d="m71.1 42.8c0.3 7-2.2 11-7.6 12.8-4.4 1.6-10-0.5-12.6-4.7-2.7-4.4-2.3-9.5 1.2-13.3 5.7-6.2 16.6-4.3 19 5.2z"/>
</svg>