<svg id="visual" viewBox="0 0 1920 1080" width="1920" height="1080" xmlns="http://www.w3.org/2000/svg" xmlns:xlink="http://www.w3.org/1999/xlink" version="1.1"><rect x="0" y="0" width="1920" height="1080" fill="#ffffff"></rect><defs><linearGradient id="grad1_0" x1="43.8%" y1="100%" x2="100%" y2="0%"><stop offset="14.444444444444446%" stop-color="#716ad9" stop-opacity="1"></stop><stop offset="85.55555555555554%" stop-color="#716ad9" stop-opacity="1"></stop></linearGradient></defs><defs><linearGradient id="grad1_1" x1="43.8%" y1="100%" x2="100%" y2="0%"><stop offset="14.444444444444446%" stop-color="#716ad9" stop-opacity="1"></stop><stop offset="85.55555555555554%" stop-color="#bcb2ed" stop-opacity="1"></stop></linearGradient></defs><defs><linearGradient id="grad1_2" x1="43.8%" y1="100%" x2="100%" y2="0%"><stop offset="14.444444444444446%" stop-color="#ffffff" stop-opacity="1"></stop><stop offset="85.55555555555554%" stop-color="#bcb2ed" stop-opacity="1"></stop></linearGradient></defs><defs><linearGradient id="grad2_0" x1="0%" y1="100%" x2="56.3%" y2="0%"><stop offset="14.444444444444446%" stop-color="#716ad9" stop-opacity="1"></stop><stop offset="85.55555555555554%" stop-color="#716ad9" stop-opacity="1"></stop></linearGradient></defs><defs><linearGradient id="grad2_1" x1="0%" y1="100%" x2="56.3%" y2="0%"><stop offset="14.444444444444446%" stop-color="#bcb2ed" stop-opacity="1"></stop><stop offset="85.55555555555554%" stop-color="#716ad9" stop-opacity="1"></stop></linearGradient></defs><defs><linearGradient id="grad2_2" x1="0%" y1="100%" x2="56.3%" y2="0%"><stop offset="14.444444444444446%" stop-color="#bcb2ed" stop-opacity="1"></stop><stop offset="85.55555555555554%" stop-color="#ffffff" stop-opacity="1"></stop></linearGradient></defs><g transform="translate(1920, 1080)"><path d="M-756 0C-764.2 -117.2 -772.3 -234.5 -698.5 -289.3C-624.6 -344.2 -468.6 -336.6 -391 -391C-313.5 -445.4 -314.2 -561.7 -262.1 -632.9C-210 -704 -105 -730 0 -756L0 0Z" fill="#ded8f6"></path><path d="M-504 0C-509.4 -78.2 -514.9 -156.3 -465.6 -192.9C-416.4 -229.4 -312.4 -224.4 -260.7 -260.7C-209 -296.9 -209.5 -374.5 -174.8 -421.9C-140 -469.3 -70 -486.7 0 -504L0 0Z" fill="#998de3"></path><path d="M-252 0C-254.7 -39.1 -257.4 -78.2 -232.8 -96.4C-208.2 -114.7 -156.2 -112.2 -130.3 -130.3C-104.5 -148.5 -104.7 -187.2 -87.4 -211C-70 -234.7 -35 -243.3 0 -252L0 0Z" fill="#716ad9"></path></g><g transform="translate(0, 0)"><path d="M756 0C621.9 42.3 487.8 84.5 474.9 196.7C462 308.9 570.3 491 534.6 534.6C498.8 578.2 319 483.2 205.9 497C92.8 510.9 46.4 633.4 0 756L0 0Z" fill="#ded8f6"></path><path d="M504 0C414.6 28.2 325.2 56.3 316.6 131.1C308 205.9 380.2 327.3 356.4 356.4C332.6 385.4 212.7 322.2 137.3 331.4C61.8 340.6 30.9 422.3 0 504L0 0Z" fill="#998de3"></path><path d="M252 0C207.3 14.1 162.6 28.2 158.3 65.6C154 103 190.1 163.7 178.2 178.2C166.3 192.7 106.3 161.1 68.6 165.7C30.9 170.3 15.5 211.1 0 252L0 0Z" fill="#716ad9"></path></g></svg>