<svg id="visual" viewBox="0 0 1920 1080" width="1920" height="1080" xmlns="http://www.w3.org/2000/svg" xmlns:xlink="http://www.w3.org/1999/xlink" version="1.1"><path d="M0 407L45.7 391.5C91.3 376 182.7 345 274.2 358.7C365.7 372.3 457.3 430.7 548.8 435.3C640.3 440 731.7 391 823 366.5C914.3 342 1005.7 342 1097 344.2C1188.3 346.3 1279.7 350.7 1371.2 369.2C1462.7 387.7 1554.3 420.3 1645.8 434.3C1737.3 448.3 1828.7 443.7 1874.3 441.3L1920 439L1920 0L1874.3 0C1828.7 0 1737.3 0 1645.8 0C1554.3 0 1462.7 0 1371.2 0C1279.7 0 1188.3 0 1097 0C1005.7 0 914.3 0 823 0C731.7 0 640.3 0 548.8 0C457.3 0 365.7 0 274.2 0C182.7 0 91.3 0 45.7 0L0 0Z" fill="#9791fe" stroke-linecap="round" stroke-linejoin="miter"></path></svg>