<svg version="1.2" xmlns="http://www.w3.org/2000/svg" viewBox="0 0 150 150" width="150" height="150">
	<title>New Project</title>
	<style>
		.s0 { fill: #efefef } 
	</style>
	<path id="Layer" class="s0" d="m128.3 41c-29.4 20.8-51.4 48.9-74.6 76.8-15-21.7-24.3-45.4-31.5-69.6 10.2 6.5 20.7 12.9 30.8 19.7 1.9 1.2 2.5 4.2 3.3 6.9-8.1 8.2-9.9 19.5-4.2 26.8 1.6-6.4 3.3-12.3 4.5-18.2 0.6-2.8 0.2-5.7 0.2-8.5 4.7-8.7 13.3-12.3 21.5-15.8 14.6-6.3 29.5-11.6 44.3-17.3 1.6-0.6 3.3-0.6 5.3-0.8 0.4 0.1 0.4 0 0.4 0z"/>
	<path id="Layer" class="s0" d="m54.5 48.2c-2.1-6.2-1.1-10.8 2.8-13.8 4-2.9 8.4-3.4 12.6-0.8 4.2 2.6 6 6.6 5.2 11.5-0.8 4.9-4.1 7.7-8.5 8.7-5 1.2-9.1-0.8-12.1-5.6z"/>
</svg>